<svg width="24" height="32" viewBox="0 0 24 32" fill="none" xmlns="http://www.w3.org/2000/svg">
  <!-- ribbon (touches top) -->
  <path d="M6 0H18V7.8C18 9.457 16.657 10.8 15 10.8H9C7.343 10.8 6 9.457 6 7.8V0Z" fill="#9BA58B" opacity="0.6"></path>
  <!-- ribbon notch -->
  <path d="M6 6.2L12 11.2L18 6.2" stroke="#C9D2BA" stroke-width="1.6" stroke-linecap="round" stroke-linejoin="round" opacity="0.9"></path>

  <!-- medal disc -->
  <circle cx="12" cy="22" r="10" fill="#B9C4A7"></circle>

  <!-- scalloped edge hint -->
  <path d="M12 12.2C13 13.3 14.6 13.3 15.6 12.2C16.2 13.6 17.8 14.1 19.1 13.4C19 15 20.2 16.1 21.8 16.1C21 17.5 21.6 19 23 19.6C21.6 20.2 21 21.7 21.8 23.1C20.2 23.1 19 24.2 19.1 25.8C17.8 25.1 16.2 25.6 15.6 27C14.6 25.9 13 25.9 12 27C11 25.9 9.4 25.9 8.4 27C7.8 25.6 6.2 25.1 4.9 25.8C5 24.2 3.8 23.1 2.2 23.1C3 21.7 2.4 20.2 1 19.6C2.4 19 3 17.5 2.2 16.1C3.8 16.1 5 15 4.9 13.4C6.2 14.1 7.8 13.6 8.4 12.2C9.4 13.3 11 13.3 12 12.2Z" fill="#9BA58B" opacity="0.18"></path>

  <!-- center badge -->
  <circle cx="12" cy="22" r="6.6" fill="#C9D2BA" opacity="0.7"></circle>
  <circle cx="12" cy="22" r="6.6" fill="none" stroke="#9BA58B" stroke-width="2" opacity="0.45"></circle>

  <!-- checkmark -->
  <path d="M9.2 22.1L11 23.9L14.9 20" stroke="#9BA58B" stroke-width="2" stroke-linecap="round" stroke-linejoin="round" opacity="0.9"></path>

  <!-- tiny heart detail -->
  <path d="M12 15.3C12 14.7 12.55 14.35 13.1 14.35C13.65 14.35 14.1 14.8 14.1 15.35C14.1 15.78 13.84 16.14 13.43 16.46L12 17.6L10.57 16.46C10.16 16.14 9.9 15.78 9.9 15.35C9.9 14.8 10.35 14.35 10.9 14.35C11.45 14.35 12 14.7 12 15.3Z" fill="#B9C4A7" opacity="0.9"></path>
</svg>
