<svg xmlns="http://www.w3.org/2000/svg" width="64" height="64" viewBox="8 10 48 44" fill="none">
  <!-- adult left -->
  <circle cx="20" cy="24" r="6" fill="#B8C5B1"></circle>
  <path d="M11 50c.6-8.5 5.2-13 9-13s8.4 4.5 9 13c.15 1.6-1.1 3-2.8 3H13.8c-1.7 0-2.95-1.4-2.8-3z" fill="#AAB8A3"></path>

  <!-- adult right -->
  <circle cx="44" cy="24" r="6" fill="#C6D2BF"></circle>
  <path d="M35 50c.6-8.5 5.2-13 9-13s8.4 4.5 9 13c.15 1.6-1.1 3-2.8 3H37.8c-1.7 0-2.95-1.4-2.8-3z" fill="#B8C5B1"></path>

  <!-- baby -->
  <circle cx="32" cy="30" r="5" fill="#D7E2D2"></circle>
  <path d="M26 50c.45-6.2 4-9.5 6-9.5s5.55 3.3 6 9.5c.1 1.4-1 2.5-2.5 2.5h-7c-1.5 0-2.6-1.1-2.5-2.5z" fill="#C6D2BF"></path>

  <!-- heart -->
  <path d="M32 17c-.9-1-2.5-.8-3 .3-.5 1-.2 2 .6 2.6l2.4 2.1 2.4-2.1c.8-.6 1.1-1.7.6-2.6-.5-1.1-2.1-1.3-3-.3z" fill="#9FB09A"></path>
</svg>
