<svg xmlns="http://www.w3.org/2000/svg" width="64" height="64" viewBox="0 0 64 64" fill="none">
  <!-- Palette (dopasowana do pastelowych oliwkowych ikon):
       dark:  #9FB09A
       mid:   #AAB8A3
       light: #C6D2BF
       extra: #D7E2D2
  -->

  <!-- adult left -->
  <circle cx="22" cy="24" r="6.5" fill="#B8C5B1"></circle>
  <path d="M12 50c.7-9.6 6-14.8 10-14.8S31.3 40.4 32 50c.2 2-1.4 3.6-3.4 3.6H15.4C13.4 53.6 11.8 52 12 50z" fill="#AAB8A3"></path>

  <!-- adult right -->
  <circle cx="42" cy="24" r="6.5" fill="#C6D2BF"></circle>
  <path d="M32 50c.7-9.6 6-14.8 10-14.8S51.3 40.4 52 50c.2 2-1.4 3.6-3.4 3.6H35.4C33.4 53.6 31.8 52 32 50z" fill="#B8C5B1"></path>

  <!-- baby center -->
  <circle cx="32" cy="30" r="5.5" fill="#D7E2D2"></circle>
  <path d="M25.5 50c.5-6.9 4.6-11.1 6.5-11.1s6 4.2 6.5 11.1c.15 1.8-1.2 3.2-3.1 3.2h-6.8c-1.9 0-3.25-1.4-3.1-3.2z" fill="#C6D2BF"></path>

  <!-- small heart detail -->
  <path d="M32 17.8c-1-1.1-2.8-.9-3.4.3-.6 1.1-.2 2.2.7 2.9l2.7 2.3 2.7-2.3c.9-.7 1.3-1.9.7-2.9-.6-1.2-2.4-1.4-3.4-.3z" fill="#9FB09A"></path>
</svg>
