<svg width="24" height="32" viewBox="0 0 24 32" fill="none" xmlns="http://www.w3.org/2000/svg">
  <!-- paper (touches all sides) -->
  <rect x="0" y="0" width="24" height="32" rx="5" fill="#B9C4A7"></rect>
  <!-- subtle left shadow -->
  <path d="M5 0H6.6V32H5C2.239 32 0 29.761 0 27V5C0 2.239 2.239 0 5 0Z" fill="#9BA58B" opacity="0.22"></path>

  <!-- bullets -->
  <circle cx="6.5" cy="10.5" r="1.3" fill="#9BA58B"></circle>
  <circle cx="6.5" cy="16" r="1.3" fill="#9BA58B"></circle>
  <circle cx="6.5" cy="21.5" r="1.3" fill="#9BA58B"></circle>

  <!-- lines -->
  <rect x="9.2" y="9.6" width="11.8" height="1.8" rx="0.9" fill="#9BA58B" opacity="0.65"></rect>
  <rect x="9.2" y="15.1" width="9.8" height="1.8" rx="0.9" fill="#9BA58B" opacity="0.65"></rect>
  <rect x="9.2" y="20.6" width="12.8" height="1.8" rx="0.9" fill="#9BA58B" opacity="0.65"></rect>

  <!-- heart detail -->
  <path d="M16.1 25.2C16.1 24.3 16.92 23.72 17.74 23.72C18.56 23.72 19.2 24.36 19.2 25.18C19.2 25.83 18.81 26.39 18.22 26.85L16.1 28.55L13.98 26.85C13.39 26.39 13 25.83 13 25.18C13 24.36 13.64 23.72 14.46 23.72C15.28 23.72 16.1 24.3 16.1 25.2Z" fill="#C9D2BA"></path>
</svg>
