<svg width="24" height="32" viewBox="0 0 24 32" fill="none" xmlns="http://www.w3.org/2000/svg">
  <!-- speech bubble (fills area; no empty margins) -->
  <path d="M5 2H19C21.761 2 24 4.239 24 7V20C24 22.761 21.761 25 19 25H10.2L5 30.2V25H5C2.239 25 0 22.761 0 20V7C0 4.239 2.239 2 5 2Z" fill="#B9C4A7"></path>

  <!-- bubble shade -->
  <path d="M24 7V20C24 22.761 21.761 25 19 25H10.2L5 30.2V25H5C2.239 25 0 22.761 0 20V18.6C1.9 21 4.8 22.6 8.2 22.6H18.2C21 22.6 23.3 20.3 23.3 17.5V6.8C23.75 6.9 24 7.2 24 7Z" fill="#9BA58B" opacity="0.28"></path>

  <!-- text lines -->
  <rect x="5" y="8" width="14" height="1.8" rx="0.9" fill="#9BA58B" opacity="0.7"></rect>
  <rect x="5" y="12" width="11" height="1.8" rx="0.9" fill="#9BA58B" opacity="0.7"></rect>
  <rect x="5" y="16" width="13" height="1.8" rx="0.9" fill="#9BA58B" opacity="0.7"></rect>

  <!-- tiny heart detail -->
  <path d="M17.2 19.9C17.2 19.3 17.74 18.95 18.28 18.95C18.82 18.95 19.25 19.38 19.25 19.92C19.25 20.34 19 20.7 18.61 21L17.2 22.12L15.79 21C15.4 20.7 15.15 20.34 15.15 19.92C15.15 19.38 15.58 18.95 16.12 18.95C16.66 18.95 17.2 19.3 17.2 19.9Z" fill="#C9D2BA" opacity="0.95"></path>
</svg>
