<svg width="24" height="32" viewBox="0 0 24 32" fill="none" xmlns="http://www.w3.org/2000/svg">
  <!-- canopy (touches top + left + right) -->
  <path d="M12 0C18.627 0 24 4.925 24 11C24 17.075 18.627 22 12 22C5.373 22 0 17.075 0 11C0 4.925 5.373 0 12 0Z" fill="#B9C4A7"></path>
  <!-- canopy shadow -->
  <path d="M24 11C24 17.075 18.627 22 12 22C7.05 22 2.8 19.25 0.95 15.25C3.15 17.9 6.45 19.6 10.2 19.6C16.7 19.6 22.15 14.55 23.1 8.2C23.7 9.05 24 10 24 11Z" fill="#9BA58B" opacity="0.55"></path>
  <!-- trunk (touches bottom) -->
  <path d="M9 20C9 18.895 9.895 18 11 18H13C14.105 18 15 18.895 15 20V30C15 31.105 14.105 32 13 32H11C9.895 32 9 31.105 9 30V20Z" fill="#9BA58B"></path>
  <!-- heart detail -->
  <path d="M15 7.3C15 6.25 15.95 5.6 16.9 5.6C17.85 5.6 18.6 6.35 18.6 7.3C18.6 8.05 18.15 8.7 17.45 9.25L15 11.2L12.55 9.25C11.85 8.7 11.4 8.05 11.4 7.3C11.4 6.35 12.15 5.6 13.1 5.6C14.05 5.6 15 6.25 15 7.3Z" fill="#C9D2BA"></path>
</svg>
