<svg width="24" height="32" viewBox="0 0 24 32" fill="none" xmlns="http://www.w3.org/2000/svg">
  <!-- calendar card (fills the whole icon area) -->
  <rect x="0" y="0" width="24" height="32" rx="5" fill="#B9C4A7"></rect>

  <!-- top header -->
  <path d="M0 6C0 3.239 2.239 1 5 1H19C21.761 1 24 3.239 24 6V12H0V6Z" fill="#9BA58B" opacity="0.55"></path>

  <!-- rings -->
  <rect x="5" y="0" width="3" height="7" rx="1.5" fill="#9BA58B"></rect>
  <rect x="16" y="0" width="3" height="7" rx="1.5" fill="#9BA58B"></rect>

  <!-- date window -->
  <rect x="4.5" y="14.5" width="15" height="14" rx="3" fill="#C9D2BA"></rect>

  <!-- check mark -->
  <path d="M8 22L10.2 24.2L16 18.4" stroke="#9BA58B" stroke-width="2" stroke-linecap="round" stroke-linejoin="round" opacity="0.9"></path>

  <!-- tiny heart detail -->
  <path d="M18.2 12.3C18.2 11.65 18.78 11.25 19.36 11.25C19.94 11.25 20.4 11.71 20.4 12.29C20.4 12.75 20.13 13.14 19.7 13.47L18.2 14.67L16.7 13.47C16.27 13.14 16 12.75 16 12.29C16 11.71 16.46 11.25 17.04 11.25C17.62 11.25 18.2 11.65 18.2 12.3Z" fill="#C9D2BA" opacity="0.9"></path>
</svg>
